<mxfile host="app.diagrams.net" modified="2020-06-02T14:31:35.780Z" agent="5.0 (Windows NT 10.0; Win64; x64) AppleWebKit/537.36 (KHTML, like Gecko) Chrome/83.0.4103.61 Safari/537.36" etag="NCS1NJEVgdmJh2u-T3nu" version="13.1.12" type="github">
  <diagram id="ARHb13zRGOqriXqdpwlf" name="Page-1">
    <mxGraphModel dx="593" dy="1413" grid="1" gridSize="1" guides="1" tooltips="1" connect="1" arrows="1" fold="1" page="1" pageScale="1" pageWidth="850" pageHeight="1100" math="0" shadow="0">
      <root>
        <mxCell id="0" />
        <mxCell id="1" parent="0" />
        <mxCell id="_V3fdvqvnj95eJ_vE--1-14" value="" style="group" vertex="1" connectable="0" parent="1">
          <mxGeometry x="215" y="166" width="1000" height="999" as="geometry" />
        </mxCell>
        <mxCell id="_V3fdvqvnj95eJ_vE--1-35" value="" style="group" vertex="1" connectable="0" parent="_V3fdvqvnj95eJ_vE--1-14">
          <mxGeometry x="-105.74018126888217" y="-126.76132930513596" width="151.05740181268882" height="301.81268882175226" as="geometry" />
        </mxCell>
        <mxCell id="l6RY3EGOae1rwYphjT4a-4" value="" style="rounded=1;whiteSpace=wrap;html=1;rotation=-90;" parent="_V3fdvqvnj95eJ_vE--1-35" vertex="1">
          <mxGeometry x="-75.52870090634438" y="75.45317220543807" width="302.1148036253776" height="150.90634441087613" as="geometry" />
        </mxCell>
        <mxCell id="l6RY3EGOae1rwYphjT4a-7" value="" style="endArrow=none;html=1;entryX=0.102;entryY=0.997;entryDx=0;entryDy=0;entryPerimeter=0;exitX=0.104;exitY=-0.005;exitDx=0;exitDy=0;exitPerimeter=0;" parent="_V3fdvqvnj95eJ_vE--1-35" source="l6RY3EGOae1rwYphjT4a-4" target="l6RY3EGOae1rwYphjT4a-4" edge="1">
          <mxGeometry width="50" height="50" relative="1" as="geometry">
            <mxPoint x="15.105740181268892" y="271.63141993957703" as="sourcePoint" />
            <mxPoint x="90.6344410876133" y="196.17824773413898" as="targetPoint" />
          </mxGeometry>
        </mxCell>
        <mxCell id="_V3fdvqvnj95eJ_vE--1-1" value="" style="ellipse;whiteSpace=wrap;html=1;aspect=fixed;" vertex="1" parent="_V3fdvqvnj95eJ_vE--1-35">
          <mxGeometry x="67.97583081570997" y="279.17673716012087" width="15.07546815685752" height="15.07546815685752" as="geometry" />
        </mxCell>
        <mxCell id="_V3fdvqvnj95eJ_vE--1-4" value="" style="endArrow=none;html=1;entryX=0.901;entryY=0.996;entryDx=0;entryDy=0;entryPerimeter=0;exitX=0.901;exitY=-0.001;exitDx=0;exitDy=0;exitPerimeter=0;" edge="1" parent="_V3fdvqvnj95eJ_vE--1-35" source="l6RY3EGOae1rwYphjT4a-4" target="l6RY3EGOae1rwYphjT4a-4">
          <mxGeometry width="50" height="50" relative="1" as="geometry">
            <mxPoint x="7.5528700906344515" y="78.47129909365559" as="sourcePoint" />
            <mxPoint x="83.08157099697885" y="3.0181268882175227" as="targetPoint" />
          </mxGeometry>
        </mxCell>
        <mxCell id="_V3fdvqvnj95eJ_vE--1-5" value="" style="ellipse;whiteSpace=wrap;html=1;aspect=fixed;" vertex="1" parent="_V3fdvqvnj95eJ_vE--1-35">
          <mxGeometry x="73.26283987915407" y="7.545317220543807" width="4.522640447057255" height="4.522640447057255" as="geometry" />
        </mxCell>
        <mxCell id="_V3fdvqvnj95eJ_vE--1-6" value="" style="rounded=1;whiteSpace=wrap;html=1;" vertex="1" parent="_V3fdvqvnj95eJ_vE--1-35">
          <mxGeometry x="59.66767371601209" y="16.599697885196374" width="31.72205438066465" height="4.527190332326284" as="geometry" />
        </mxCell>
        <mxCell id="_V3fdvqvnj95eJ_vE--1-16" value="" style="shape=mxgraph.bpmn.shape;html=1;verticalLabelPosition=bottom;labelBackgroundColor=#ffffff;verticalAlign=top;align=center;perimeter=ellipsePerimeter;outlineConnect=0;outline=end;symbol=terminate;" vertex="1" parent="_V3fdvqvnj95eJ_vE--1-35">
          <mxGeometry x="67.97583081570997" y="279.17673716012087" width="15.105740181268882" height="15.090634441087614" as="geometry" />
        </mxCell>
        <mxCell id="_V3fdvqvnj95eJ_vE--1-32" value="" style="group" vertex="1" connectable="0" parent="_V3fdvqvnj95eJ_vE--1-35">
          <mxGeometry x="4.531722054380664" y="241.45015105740183" width="24.16918429003021" height="24.145015105740182" as="geometry" />
        </mxCell>
        <mxCell id="_V3fdvqvnj95eJ_vE--1-30" value="" style="rounded=1;whiteSpace=wrap;html=1;" vertex="1" parent="_V3fdvqvnj95eJ_vE--1-32">
          <mxGeometry width="24.16918429003021" height="24.145015105740182" as="geometry" />
        </mxCell>
        <mxCell id="_V3fdvqvnj95eJ_vE--1-31" value="" style="shape=image;html=1;verticalLabelPosition=bottom;labelBackgroundColor=#ffffff;verticalAlign=top;imageAspect=1;aspect=fixed;image=img/clipart/Gear_128x128.png" vertex="1" parent="_V3fdvqvnj95eJ_vE--1-32">
          <mxGeometry x="3.0664652567975828" y="1.5090634441087614" width="18.000108979287877" height="21.105655419600527" as="geometry" />
        </mxCell>
        <mxCell id="_V3fdvqvnj95eJ_vE--1-37" value="" style="group" vertex="1" connectable="0" parent="_V3fdvqvnj95eJ_vE--1-14">
          <mxGeometry x="555.8912386706947" y="-9.808912386706949" width="151.0574018126888" height="321.43051359516613" as="geometry" />
        </mxCell>
        <mxCell id="_V3fdvqvnj95eJ_vE--1-13" value="" style="group" vertex="1" connectable="0" parent="_V3fdvqvnj95eJ_vE--1-37">
          <mxGeometry width="151.0574018126888" height="321.43051359516613" as="geometry" />
        </mxCell>
        <mxCell id="_V3fdvqvnj95eJ_vE--1-7" value="" style="rounded=1;whiteSpace=wrap;html=1;rotation=-90;" vertex="1" parent="_V3fdvqvnj95eJ_vE--1-13">
          <mxGeometry x="-75.5287009063444" y="75.45317220543805" width="302.1148036253776" height="150.9063444108761" as="geometry" />
        </mxCell>
        <mxCell id="_V3fdvqvnj95eJ_vE--1-8" value="" style="endArrow=none;html=1;entryX=0.102;entryY=0.997;entryDx=0;entryDy=0;entryPerimeter=0;exitX=0.104;exitY=-0.005;exitDx=0;exitDy=0;exitPerimeter=0;" edge="1" parent="_V3fdvqvnj95eJ_vE--1-13" source="_V3fdvqvnj95eJ_vE--1-7" target="_V3fdvqvnj95eJ_vE--1-7">
          <mxGeometry width="50" height="50" relative="1" as="geometry">
            <mxPoint x="15.105740181268882" y="271.63141993957703" as="sourcePoint" />
            <mxPoint x="90.63444108761328" y="196.17824773413895" as="targetPoint" />
          </mxGeometry>
        </mxCell>
        <mxCell id="_V3fdvqvnj95eJ_vE--1-9" value="" style="ellipse;whiteSpace=wrap;html=1;aspect=fixed;" vertex="1" parent="_V3fdvqvnj95eJ_vE--1-13">
          <mxGeometry x="67.97583081570995" y="279.1767371601208" width="15.075468156857518" height="15.075468156857518" as="geometry" />
        </mxCell>
        <mxCell id="_V3fdvqvnj95eJ_vE--1-10" value="" style="endArrow=none;html=1;entryX=0.901;entryY=0.996;entryDx=0;entryDy=0;entryPerimeter=0;exitX=0.901;exitY=-0.001;exitDx=0;exitDy=0;exitPerimeter=0;" edge="1" parent="_V3fdvqvnj95eJ_vE--1-13" source="_V3fdvqvnj95eJ_vE--1-7" target="_V3fdvqvnj95eJ_vE--1-7">
          <mxGeometry width="50" height="50" relative="1" as="geometry">
            <mxPoint x="7.552870090634441" y="78.47129909365557" as="sourcePoint" />
            <mxPoint x="83.08157099697884" y="3.0181268882175223" as="targetPoint" />
          </mxGeometry>
        </mxCell>
        <mxCell id="_V3fdvqvnj95eJ_vE--1-11" value="" style="ellipse;whiteSpace=wrap;html=1;aspect=fixed;" vertex="1" parent="_V3fdvqvnj95eJ_vE--1-13">
          <mxGeometry x="73.26283987915407" y="7.545317220543806" width="4.522640447057254" height="4.522640447057254" as="geometry" />
        </mxCell>
        <mxCell id="_V3fdvqvnj95eJ_vE--1-12" value="" style="rounded=1;whiteSpace=wrap;html=1;" vertex="1" parent="_V3fdvqvnj95eJ_vE--1-13">
          <mxGeometry x="59.66767371601208" y="16.599697885196374" width="31.72205438066465" height="4.527190332326283" as="geometry" />
        </mxCell>
        <mxCell id="_V3fdvqvnj95eJ_vE--1-18" value="" style="group" vertex="1" connectable="0" parent="_V3fdvqvnj95eJ_vE--1-13">
          <mxGeometry width="151.0574018126888" height="321.43051359516613" as="geometry" />
        </mxCell>
        <mxCell id="_V3fdvqvnj95eJ_vE--1-19" value="" style="group" vertex="1" connectable="0" parent="_V3fdvqvnj95eJ_vE--1-18">
          <mxGeometry width="151.0574018126888" height="321.43051359516613" as="geometry" />
        </mxCell>
        <mxCell id="_V3fdvqvnj95eJ_vE--1-20" value="" style="rounded=1;whiteSpace=wrap;html=1;rotation=-90;" vertex="1" parent="_V3fdvqvnj95eJ_vE--1-19">
          <mxGeometry x="-75.52870090634438" y="75.45317220543805" width="302.1148036253776" height="150.9063444108761" as="geometry" />
        </mxCell>
        <mxCell id="_V3fdvqvnj95eJ_vE--1-21" value="" style="endArrow=none;html=1;entryX=0.102;entryY=0.997;entryDx=0;entryDy=0;entryPerimeter=0;exitX=0.104;exitY=-0.005;exitDx=0;exitDy=0;exitPerimeter=0;" edge="1" parent="_V3fdvqvnj95eJ_vE--1-19" source="_V3fdvqvnj95eJ_vE--1-20" target="_V3fdvqvnj95eJ_vE--1-20">
          <mxGeometry width="50" height="50" relative="1" as="geometry">
            <mxPoint x="15.105740181268892" y="271.63141993957703" as="sourcePoint" />
            <mxPoint x="90.6344410876133" y="196.17824773413895" as="targetPoint" />
          </mxGeometry>
        </mxCell>
        <mxCell id="_V3fdvqvnj95eJ_vE--1-22" value="" style="ellipse;whiteSpace=wrap;html=1;aspect=fixed;" vertex="1" parent="_V3fdvqvnj95eJ_vE--1-19">
          <mxGeometry x="67.97583081570997" y="279.1767371601208" width="15.075468156857518" height="15.075468156857518" as="geometry" />
        </mxCell>
        <mxCell id="_V3fdvqvnj95eJ_vE--1-23" value="" style="endArrow=none;html=1;entryX=0.901;entryY=0.996;entryDx=0;entryDy=0;entryPerimeter=0;exitX=0.901;exitY=-0.001;exitDx=0;exitDy=0;exitPerimeter=0;" edge="1" parent="_V3fdvqvnj95eJ_vE--1-19" source="_V3fdvqvnj95eJ_vE--1-20" target="_V3fdvqvnj95eJ_vE--1-20">
          <mxGeometry width="50" height="50" relative="1" as="geometry">
            <mxPoint x="7.5528700906344515" y="78.47129909365557" as="sourcePoint" />
            <mxPoint x="83.08157099697885" y="3.0181268882175223" as="targetPoint" />
          </mxGeometry>
        </mxCell>
        <mxCell id="_V3fdvqvnj95eJ_vE--1-24" value="" style="ellipse;whiteSpace=wrap;html=1;aspect=fixed;" vertex="1" parent="_V3fdvqvnj95eJ_vE--1-19">
          <mxGeometry x="73.26283987915407" y="7.545317220543806" width="4.522640447057254" height="4.522640447057254" as="geometry" />
        </mxCell>
        <mxCell id="_V3fdvqvnj95eJ_vE--1-25" value="" style="rounded=1;whiteSpace=wrap;html=1;" vertex="1" parent="_V3fdvqvnj95eJ_vE--1-19">
          <mxGeometry x="59.66767371601209" y="16.599697885196374" width="31.72205438066465" height="4.527190332326283" as="geometry" />
        </mxCell>
        <mxCell id="_V3fdvqvnj95eJ_vE--1-26" value="" style="shape=mxgraph.bpmn.shape;html=1;verticalLabelPosition=bottom;labelBackgroundColor=#ffffff;verticalAlign=top;align=center;perimeter=ellipsePerimeter;outlineConnect=0;outline=end;symbol=terminate;" vertex="1" parent="_V3fdvqvnj95eJ_vE--1-19">
          <mxGeometry x="67.97583081570997" y="279.1767371601208" width="15.105740181268882" height="15.090634441087612" as="geometry" />
        </mxCell>
        <mxCell id="_V3fdvqvnj95eJ_vE--1-38" value="" style="group" vertex="1" connectable="0" parent="_V3fdvqvnj95eJ_vE--1-14">
          <mxGeometry x="1188.8217522658608" y="-178.06948640483384" width="151.0574018126888" height="321.43051359516613" as="geometry" />
        </mxCell>
        <mxCell id="_V3fdvqvnj95eJ_vE--1-39" value="" style="group" vertex="1" connectable="0" parent="_V3fdvqvnj95eJ_vE--1-38">
          <mxGeometry width="151.0574018126888" height="321.43051359516613" as="geometry" />
        </mxCell>
        <mxCell id="_V3fdvqvnj95eJ_vE--1-40" value="" style="rounded=1;whiteSpace=wrap;html=1;rotation=-90;" vertex="1" parent="_V3fdvqvnj95eJ_vE--1-39">
          <mxGeometry x="-75.5287009063444" y="75.45317220543805" width="302.1148036253776" height="150.9063444108761" as="geometry" />
        </mxCell>
        <mxCell id="_V3fdvqvnj95eJ_vE--1-41" value="" style="endArrow=none;html=1;entryX=0.102;entryY=0.997;entryDx=0;entryDy=0;entryPerimeter=0;exitX=0.104;exitY=-0.005;exitDx=0;exitDy=0;exitPerimeter=0;" edge="1" parent="_V3fdvqvnj95eJ_vE--1-39" source="_V3fdvqvnj95eJ_vE--1-40" target="_V3fdvqvnj95eJ_vE--1-40">
          <mxGeometry width="50" height="50" relative="1" as="geometry">
            <mxPoint x="15.105740181268882" y="271.63141993957703" as="sourcePoint" />
            <mxPoint x="90.63444108761328" y="196.17824773413895" as="targetPoint" />
          </mxGeometry>
        </mxCell>
        <mxCell id="_V3fdvqvnj95eJ_vE--1-42" value="" style="ellipse;whiteSpace=wrap;html=1;aspect=fixed;" vertex="1" parent="_V3fdvqvnj95eJ_vE--1-39">
          <mxGeometry x="67.97583081570995" y="279.1767371601208" width="15.075468156857518" height="15.075468156857518" as="geometry" />
        </mxCell>
        <mxCell id="_V3fdvqvnj95eJ_vE--1-43" value="" style="endArrow=none;html=1;entryX=0.901;entryY=0.996;entryDx=0;entryDy=0;entryPerimeter=0;exitX=0.901;exitY=-0.001;exitDx=0;exitDy=0;exitPerimeter=0;" edge="1" parent="_V3fdvqvnj95eJ_vE--1-39" source="_V3fdvqvnj95eJ_vE--1-40" target="_V3fdvqvnj95eJ_vE--1-40">
          <mxGeometry width="50" height="50" relative="1" as="geometry">
            <mxPoint x="7.552870090634441" y="78.47129909365557" as="sourcePoint" />
            <mxPoint x="83.08157099697884" y="3.0181268882175223" as="targetPoint" />
          </mxGeometry>
        </mxCell>
        <mxCell id="_V3fdvqvnj95eJ_vE--1-44" value="" style="ellipse;whiteSpace=wrap;html=1;aspect=fixed;" vertex="1" parent="_V3fdvqvnj95eJ_vE--1-39">
          <mxGeometry x="73.26283987915407" y="7.545317220543806" width="4.522640447057254" height="4.522640447057254" as="geometry" />
        </mxCell>
        <mxCell id="_V3fdvqvnj95eJ_vE--1-45" value="" style="rounded=1;whiteSpace=wrap;html=1;" vertex="1" parent="_V3fdvqvnj95eJ_vE--1-39">
          <mxGeometry x="59.66767371601208" y="16.599697885196374" width="31.72205438066465" height="4.527190332326283" as="geometry" />
        </mxCell>
        <mxCell id="_V3fdvqvnj95eJ_vE--1-46" value="" style="group" vertex="1" connectable="0" parent="_V3fdvqvnj95eJ_vE--1-39">
          <mxGeometry width="151.0574018126888" height="321.43051359516613" as="geometry" />
        </mxCell>
        <mxCell id="_V3fdvqvnj95eJ_vE--1-47" value="" style="group" vertex="1" connectable="0" parent="_V3fdvqvnj95eJ_vE--1-46">
          <mxGeometry width="151.0574018126888" height="321.43051359516613" as="geometry" />
        </mxCell>
        <mxCell id="_V3fdvqvnj95eJ_vE--1-48" value="" style="rounded=1;whiteSpace=wrap;html=1;rotation=-90;" vertex="1" parent="_V3fdvqvnj95eJ_vE--1-47">
          <mxGeometry x="-75.52870090634438" y="75.45317220543805" width="302.1148036253776" height="150.9063444108761" as="geometry" />
        </mxCell>
        <mxCell id="_V3fdvqvnj95eJ_vE--1-49" value="" style="endArrow=none;html=1;entryX=0.102;entryY=0.997;entryDx=0;entryDy=0;entryPerimeter=0;exitX=0.104;exitY=-0.005;exitDx=0;exitDy=0;exitPerimeter=0;" edge="1" parent="_V3fdvqvnj95eJ_vE--1-47" source="_V3fdvqvnj95eJ_vE--1-48" target="_V3fdvqvnj95eJ_vE--1-48">
          <mxGeometry width="50" height="50" relative="1" as="geometry">
            <mxPoint x="15.105740181268892" y="271.63141993957703" as="sourcePoint" />
            <mxPoint x="90.6344410876133" y="196.17824773413895" as="targetPoint" />
          </mxGeometry>
        </mxCell>
        <mxCell id="_V3fdvqvnj95eJ_vE--1-50" value="" style="ellipse;whiteSpace=wrap;html=1;aspect=fixed;" vertex="1" parent="_V3fdvqvnj95eJ_vE--1-47">
          <mxGeometry x="67.97583081570997" y="279.1767371601208" width="15.075468156857518" height="15.075468156857518" as="geometry" />
        </mxCell>
        <mxCell id="_V3fdvqvnj95eJ_vE--1-51" value="" style="endArrow=none;html=1;entryX=0.901;entryY=0.996;entryDx=0;entryDy=0;entryPerimeter=0;exitX=0.901;exitY=-0.001;exitDx=0;exitDy=0;exitPerimeter=0;" edge="1" parent="_V3fdvqvnj95eJ_vE--1-47" source="_V3fdvqvnj95eJ_vE--1-48" target="_V3fdvqvnj95eJ_vE--1-48">
          <mxGeometry width="50" height="50" relative="1" as="geometry">
            <mxPoint x="7.5528700906344515" y="78.47129909365557" as="sourcePoint" />
            <mxPoint x="83.08157099697885" y="3.0181268882175223" as="targetPoint" />
          </mxGeometry>
        </mxCell>
        <mxCell id="_V3fdvqvnj95eJ_vE--1-52" value="" style="ellipse;whiteSpace=wrap;html=1;aspect=fixed;" vertex="1" parent="_V3fdvqvnj95eJ_vE--1-47">
          <mxGeometry x="73.26283987915407" y="7.545317220543806" width="4.522640447057254" height="4.522640447057254" as="geometry" />
        </mxCell>
        <mxCell id="_V3fdvqvnj95eJ_vE--1-53" value="" style="rounded=1;whiteSpace=wrap;html=1;" vertex="1" parent="_V3fdvqvnj95eJ_vE--1-47">
          <mxGeometry x="59.66767371601209" y="16.599697885196374" width="31.72205438066465" height="4.527190332326283" as="geometry" />
        </mxCell>
        <mxCell id="_V3fdvqvnj95eJ_vE--1-54" value="" style="shape=mxgraph.bpmn.shape;html=1;verticalLabelPosition=bottom;labelBackgroundColor=#ffffff;verticalAlign=top;align=center;perimeter=ellipsePerimeter;outlineConnect=0;outline=end;symbol=terminate;" vertex="1" parent="_V3fdvqvnj95eJ_vE--1-47">
          <mxGeometry x="67.97583081570997" y="279.1767371601208" width="15.105740181268882" height="15.090634441087612" as="geometry" />
        </mxCell>
        <mxCell id="_V3fdvqvnj95eJ_vE--1-34" value="" style="shape=image;verticalLabelPosition=bottom;verticalAlign=top;imageAspect=0;aspect=fixed;image=data:image/png,iVBORw0KGgoAAAANSUhEUgAAAgAAAAIACAYAAAD0eNT6AAA05UlEQVR4Xu3dCZCl513f+9/znv30vm+zdM+i0b7LkmxZFhrJSwx28HKN7QtFzCWkLgFSF4fcJEVIJZDkYpnkkuRCgXMpCIsByzZGssGrhEaWrH0daaSRZtPs+9J7n/d///XUW3WNZFnTZ2ZOn9P9/RQ/9ekuSj1QNXp+z/a+ahEAAAAAAAAAAAAAAAAAAAAAACBoRYDtf0AuL1OvyRIzU0xqSi2Nn38oAEDNc9STlsfvoAA0D2z5y7sUBeUlVTxtnqo8aZrmBwf7L+rt7f2XSRLakiQxjzzK5XLxawhBQZIpYyaTAwAEzyHPv/cc9Mx5pj2TQZoy/zyfFGt5W1B1/HYKwIXFYJ+mQUnOypJGPOs9m7Ks9Qx7urMSUPLkQwiFJEna/Ks8SpLgSZTP51UoFFQsFlUul2L8s/8srxASRTKZaSUDAPNMehY8855ZzxnPMc9+z07PtiyvBumQgubMpMrEHRSA+mHLF+6SC55BzzWeWzxv82zKflZWPbKZfpALQblcEgtBpVJRW1tV7e3tqpRLyuXzb70yAACY8hzwbPU87NnieTZIx+TKZ1sGKAAM+qlMiUKPpJs8P+p5VzbjL+sCMjOFWAhyqlTK6uzs8HSqWq3ElQP31mcHAACTnhc93/Lc63lCQWeCBS8DmykAb4rZ/nrPj3s+7LnKU9ZSMJNCUD6fU1tbm3p7e2Ih8JWCsy8CAIDTnsc8f+65R0F79X1bBBQABv7Ec4nnpz0f8axtprJmZkqSJG4R9PX1qKenO54ZOOtzAgCANDsr8CdB+lML2iFXGb9jJRYABv4QJDOtk/Sznv/Vs0pNzTwhbgn09/fFVYF8Pn/2ZwQAAOZ52fM/PH+koAPB4jmB5V4A8N24xx91ZYP+L3g2qaWYQkjU3t6moaFBdXV1xO/PelsAAJB6nvD8lufLnulcmqq4/t3LvACwz3+T51c9d3ryalVmyuVz6uvt1dDwoEql0uJWAwAA054vev5DqGmr5eO2wHIpAHjg7s8qmMm1e/6x59OeES0fcVtgdHREXV2d2daGzh4A4GXPv88OC875IcHlUQCY9UfrPL+Rne4vaNkx5XJ5DQ0NeAb9c25xWwIAgCnP54L0GyYdCopnA1q1ADD4WwgKZrdI+s+e67XMBU9Pb4/GxkbilsCiSgAAwDxf9/xykJ43xSuDLVcAOOUvBYszfn3Ws0YrRzwguGbNKlWr1cWXAADAM55fUNDfna/nBiRqFJb9cyZ9StLvetZohTlz5ox27NgVv4YQtCgAgCs9fyjT+5Mgzez4ZqusADD4Z4f9/qOnSyuWqVwua+3a1ero6Fj8SgAAYJ/n51UIXw4LJn8tcZMXAK75/aznM55OKlEsARofXxNfMlRXCQAASsA/CdJfW4jXBJtpCwAP+uBfSxK5n8hm/p1yCJqZmdGuXXs0NTW1+O0AAMCo57dNuk0mTe/4ZhOuAHDVb7PnDz1jeh1YXAGYmFhb3+0AAMBznk8E6dl6VgISnVd48O67lLnU81tvNvgj6MyZSe3du1+1Wk0haHEAAJd7fsukYdmSbwHATE69nv/kuVI/FI4fO66DBw/JrI7lKADAHZ5/4yn5VkATFABe5fvPPO/XW4JJXgAO6+TJk6prGQAA8I88P6lFXg8MOt/Y93+f5088PTpLsPiAoPXrJ+o7DwAA2JE9Wv5JKagysbnBKwAY8fzqYgd/BE1NTevAgUMySxW0SACACc+/UlCbZEuwBcDs/594blZdcOzYMd8KOF3fVgAA4AMyfUyKWwEXvgBw3/9XlLne87OqG2oLtXggcGFhYfEdAABQzM6grbULvwIA06Bc0fMLnhHVDyHEdwUcO3a8vuMpAIArPD9zaqFDfiugAQWApf93ej6ocwYz6cjho5qbm6vvKYEAgJ/qzJ++VG8hr3OFYrb039Wkk2oXFOQypoyZTM1nanpax4+f0NDQoBYNALDW81O5Wvg//SyAyhN3XKAVANzoeY+aSAhBicfMNDM7r5OnJnXo6CntP3wi5sjxUzp9ZlpzCzU5JUlostm26ejRY5qfn6/vzwUA+F9qOdtoF3QLgDf9fcLTrSUWpDjo19JUR46d0jPbdus7Dz+vr37nSd3znSf01fue1Nfufyom/uzbT+hr/rMHHn1R217dp5Onp+RicVh6QdPTMzp16pTqAgCY8Py4503PAgSdCwrARZ6ve9ZqCSUhaG5+Qa8dOKaXd+7XwSMnNT0zJzMpBEXfP5M2k7Psc1wBUHu1rFUjvdo4PqLBvk4lSbK0D+QxU1d3V3w4UFzN0CIBAB4N0vskHfVtgPNcADj89wue317K/X0zaf+h43rmxd3ad/C45hdqCkGLXjq37DxApVTQutVDunzTanV3ti1pCcjnctqwcb3a2+v4cwAAZj0f9fx1qAWVN2w+TwWAAlD1fNlz51Lt88/Nzeu5l/Z4XtP07Nx5Wb7PBto4+F93+YQmVg/GFQIzLYmRkWGNjY3UVwAAAL/v+TmPVV63CpCoXrjYc+1SDf6TUzPa8tg2Pf7cDs1kg/95KhYxJ05NxvMBT72wSwsLqULQEjCdPn26/gcDAQDe5Rk7v4cAWf6/1dO3FIP/mamZODhv33VA2c90voXsXMETXjA8WQlYmsOAMzMz8XNdAIDDgNefvwKAQiwADRaC4mz/oSde0u59RxRCuOBlI01Nz27bHeOf1Wi1Wk1nzkyqfgDAeJXdBjgPBQAjnqvUYGlqetqX5He+dlghhIaVjlqaxt+7Y8+hht/LNzNNegGwNFVQHQAAb/N0nJ8VAGzyjDb6qt+uvUe0dfvehh+Iy7YD4nkDPxsQv2/k756emdH8wkJ9bwkEAGzwrD6HAoAtd9+lzBWeciOX/ienZ+MsfH5+YUmejpcdDNRz2/YoTVM1UHwi4NzsnOoCAOjzXHwuBQDmCXK6XA0V9Mrugzp87NSSPxr31T0H42OFG/nEwFot1czsrOoCAMh7LpWb3vGtugsATFVJ6xs4+49P9du+88CS34WPy/Gz8/Fpg6mZGsXM4k2AugEALvIEyc6hAKDbM9rIQffA4RM6dvJM/LzUgue1/cd06sx0Q/88s7NzMjMF1QEAsNZTOfctAPZSehp58n/P/qPxHn4zyJ5DoINeShrVR0J2DiCePQhaPADAkKfj3AsABaDaqOX/2dn5bO9fzSKWkgNHTsSvDRGCF6BaLAB1NQAAQFfMORUA9HiKaog429akp5kGvhCk4ycnFW8kNKx0ZAWgHgCAiqfz3AoAOj25Bg20sQDMzdfi5yYSryXOzDXubn6aWv0FAABQ9LSdWwFARY0TbwCkZmouQfPztfg2wkYxs/q3HAAAuXM/BIiiGicOtDJTMwlBsZQs1GoKahwzU10AAImncG4FAHk1kMnUlMxkptYBAAjnVgBgaqB8LqdmFJKgXC5p9MpDfQAA5lk4twKAVA1ULhWUJEHNxMxUyOVULORlaowQgidRXQAANc9MqxQAmNRWLTflKkC5XIzlRLJGFYD6ixAAYN4z2SIFAOZpbyurUi421QE4M6mro6q4AmBqhLjdkCSJ6gIAmPGcbpECADNTtVxUb3e7zJrrFsBgX6dyDRuQTblcLvt9pkUDAJzynGydAoA46K0a7m2a5W8zU7lU1Mhgj6yBKw6FQkEhSeob/wEAR1psBQDmGR3qVUdbuSm2Acykof4u9XS2NfTPUyzGw5Ay1QEA8FqQJkPrFACYmTrbKxpfNaBmkM8n2jg+rEI+19A3EJZKJUlBdQEAbPfUrLUKAEIIumhiVB1tlSVdBUjNNDrYo1UjfTKZGiVJgsrlsuoCADDPVpNUmbijlQoAzEy93W26dOMqhRCW7M9QKRV05SVrVWrc6f8ony+oXCqpLgCAk54XlGnBAoCL149qzWi/zGxJViEuu2h1XAFIzdQwZiqXSyoU86qrdQAAdgVpR2jNAgAzqVQs6G1XrVdfd0dDS4CZad2aQV3hBSAENVxbW1VJkpOpDgCAJzxHW3gFAGamnq52vf26i+KDeMysIb9z9Wifbrx6YzyJb6aGSnKJ2tvbVBcAgHkeMMkstHQBgJnFO/i3vu2S7AFBdkFfvTu+alDvvP5itVeX5hpiqVhSpVJVXQAA+z0PyVXG71guBYASsPntl2vt2ICyn53fl/3k87pi02ovGj74L9HtAzNTe0e7CoV8fb8fAPCI51VlllEBYDvgtpsujecCsiuCMec66x/o69S7brzE/70bVC4VlmzwzeVy6urqrO/mAwAg9dzjmVuGBYASUCrmdZVfzXvPrVfpiovXxIcGOaXpW5cBM3ks/u8mSVB/b6fv9W/Qe955ldavGYoDr5mWiKlSKWf7/6ZFAwC86vmWsvv/r5dXS4OZIj8PoJv8oN6lG1Zp74Fj2nvwmI6dOKPpmTktLNTecHUvSRIVizm1V8oa6O2ID/cZGexWpVySZErNtLSCerq7lc/XufwPALhXFnYqmNxyLQDIBsl4O6Dbs2n9aBz8z0zO6MzUjGZmvQgspApBcX+/Ui7GVw374T6VS9lz9s1imkGxWFR3T5fqAgA4FqTPW7Bs9v9GQWcNW75wl9wvef5LqzxCOMiFH7Z6YDJT0xkaGtSqVaOqCwDgTz0/7Zn3ArDSVgBgZjI5U0spFgvq6+vNziCYFgUAcCJInzNpPujNJWoyQG9vTzwAWNfSBADgKyY9KFeeuKM1CgBQLpfU39+nOPvXIgEADnj+u2duVolc8xcAIARpcGBA5XKdTx0EAPy/nkfluiduV6aJzwAAZurs7FRvX099hxYAAI8G6XckWbb03/wrAEChWNDI6HB271+LAwA45fkNk16zoLOS1xIDQgjx2l986p+ZFg0A8HtBuleuPH5HKxQAwNTT06OBgf7su0UCAHzL8xmTFl53579ZtwAAU7XaptHRkfjiHzMtDgBgu+dfeA6FoEVJBCzh435Xrx6LV//MTIsCADjq+ZUgPa7wuqX/Zt0CAPL5nFatGlNHR/viB38AwKTn3yjoyyapEgf/Jl8BAHK5RGNjo+rp6V78oT8AwKznP3h+P5gsG/xbogCAwT972p9kWiQAYPD/T57Peuaz+/5NXQCAeNBv1dhYPPEfwiIn/wCAKc+ve/6jZ3YRJ/6X6gwAYCoUivH1vv6in8UP/gCA455fC9Lv1jHzb6YVAIQQtDKYKpWKJibWKL7iV4sc/AEAOz0/5/nvVsfg30QFAEmSqKOjO86Kl7uuri6tWzcen/MvM5kWAQDwgOcnEtNfKijNlv1buQCgUq6or29I1UrbMlwNsLjfPzIypImJtXEFwBYz+AMAprLX+v6E53sW6rjq15wFAOYp5Avq6RlQV1ev8rm8lou2tjat84Hfn/CXvdzHdNYAAM95fsbzfwRpn8/6Vfa45VYAOAvQ0dapuBpQbW/d1QAzFQp5jYwMa8P6derq7lKQFjf4AwAH/X7b84EQ7PNBYa6Ogb+VCgDMUyyW1NvTr77eQZVK5dYpAhaX+9XX36sNG9ZpdHRYhWLh7Jf8AQDTnr/yfEgKvyxpR3n8TpUnNsst9wIAM5MUVKm0qb9vSD3d/c1dBLKBv6e3R+vXj2vt2jVx6f+sZ/0AgEnPV4P0cUmf8NwXZPGNfo2QV9OhCCQh8cG0Q5VKVTMz05qaPqPZ2Rmlabrkg75CULFYUFdXZ7zT74N+vNUgs7Mb+AEABz3f9PxxkB4waTIJQaXxzcqs1AIAk8uKgJ8LUKVc1dz8nJeBKc3MTmveP5tZwwpJCCG+vKdarcaB36NSqRR/flYDPwDglOcZz71ZXvTMF5QoN3G7fiAKAEVAIcTtgFKxpPa0ywvAbFwRmJ2b0cLCvNI0zQqBR+E8/NYQZ/WFQkHVSlntHe3qaG9X2T/nkkSmjEwKUtByBgDBYzLTYsxlM/3nsrv893ueDQsLp5XPL/ZUPwWAMwKKA3CuXFXZk6aparUFzS/Mx1KwMD+vBf8+rdWUWiwFMW8myIWg4EmSXNzTz+cLqpTLqlQrKpdK8UBfEoKcl44FrTgAYFKSCyoW83qd1DPvmfKc8Bzw7PA873k6SC9I2psqzCay8zToUwBYFXAhBBUKxRhV2rIBP5UXA0/Nk33OyoBMUQjyJMoGfk+SfY0/i5FJMzM1zUwvyLSiAUAc/Is9+WMh6L+adFjSTLasf9xzxHM0+zyloLQ2X1P7xvfogqMAsDKQiQN7Pp9IKmhRzGRv8u+MAAAnFcLnZPZaPKnfbCgAMJMzrSgAAJ4DAAAAKAAAAIACAAAAEgEAAAoAAACgAAAAAAoAAACgAAAAAAoAAACgAAAAAAoAAACgAAAAAAoAAACgAAAAAAoAAACgAAAAAAoAAACgAAAAAAoAAACgAAAAAOW1JNDWVlK1UpHJ1NwAALkkkYKcUQDqhxCkUimvaltRZqZmBgAIHpOZYs4ZBQBmMU0NAGCcAXAAAIACAAAAKAAAAIACAAAAKAAAAIACAAAAKAAAAIACAAAAKAAAAIACAAAAKAAAAIACAAAAKAAAAIACAAAAEgEAAAoAAACgAAAAAAoAAACgAAAAAAoAAACgAAAAAAoAAACgAAAAAAoAAACgAAAAAAoAAACgAAAAAAoAAACgAAAAAAoAAACgAAAAAOV1gQEhBI8yQSsdAJOZJDOZlh0KAJAkQU7TM3M6c2ZKs3PzMq1kAIInl8upva2stmpFSZLILPWo1VEAgBA8Cjp4+Lgee2qbXnhpp44cP6X5+QWZmVY0ALEAdLRXNbFmWDdcfbE2TIzFn5mZWhgFACz3p2mqR558QV/95sNeAo7JzOLPMwCgEydPa/feg3rs6W16+/WX6X2bb1JnR1VpampBFAAw8zcz3f/Q0/ryVx/Q9MyskiR5w+APANmkQNPTs/rWA094ITijT3zoDrW3V1ttJYBbAEAIibb6cv9f/+13NTM7Fwf/twCAIhDz+DMv6W++80hcQQxBrYQCANr89PSMvnH/YzozObXoWT8AfPfR5/Xqrv1xMtEiKABAEoJ27D6gV3fuq2fwB8AkIk4ennhmm8xMQS2BAgCY5M19X1z6r7cAAMCru/fHcwEtsA9AAQCCx9JUR4+fkpnqBoBVgNOnpzQ1M6uglkABAMxTq9V0LgAgTS1OKBTU7CgAgHmSJMQHeyioLgBgJpXLRZVKRZmpVVAAwNLd6rFB5XM51QMATKbRoT5VK+X4XQugAACWmjZOrNJgf3ddT/ICgEI+pysvWx+/mqkVUAAAM1NvT6duufEK5ZKgxQCANE21af0aXXHJOqVmahEUAMAU6Za3XanrrtoUVwHMTGcDAIP/4ECPPvDed6itWm61/3ZQAAAzU7Va0kc/cJtuvuGy+HYvb/UUgR8IQGoWB/81Y0P6yY+8W+vWjMhSU4viZUDgCk93Z7s+8eObddG6VXrwkWe1d/+R+IAgMznzBK1UAEwhhHhgeKCnQ1dfvlG33nxVPD9kqcnUyigAoNXHazy33HilrvG/3HsPHNGBQ8c0NT3DagAAFQsF9fV2atXIQDw7lCRhuRwepgAAZhZTrZa1af1qbdqwWhH1HkBQZNlZoWU6+FMAQBGoeZYzAOAQIAAAoAAAAAAKAAAAoAAAAAAKAAAAoAAAAAAKAAAAoAAAAAAKAAAAoAAAAAAKAAAAoAAAAIBEAACAAgAAACgAAACAAgAAACgAAACAAgAAACgAAACAAgAAACgAAACAAgAAACgAAACAAgAAACgAAACAAgAAACgAAACAAgAAACgAAABAeV1gQAhyIX4FAJlkcmYyLTsUACAJQfLMzc1rcnomfjXTCgYgeHL5nKqVkirlkpIQZJZ61OooAEAI8gQdPX5KTz77srZu26nDR094AVgQfR9ALpdTV0eb1o+P6rorL9La1cNKkkRmphZGAQCDv5n0xDMv6d5vPqS9+4+olqaxEARFAKAjPil4ZedePfz4Vt1y4xV697tuUFu1rNRMLYYCAAQ5kx585Dndfc/9mpyajq0+5/l+ABBCkNPpM1P6m28/ouMnTutjH7xd1Wq51VYCuAUAhCTRtlf26MtfeyDu+SdnOfADoAh874kX9I37H1MaVwzVSigAoM3PzMzGv8AnT08qCUFnCwDMTA987xnteu2gQkjUQigA4MT/zj0H9PKrr9U1+ANgEnHKJw+PP71NZqaglkEBAF7dtU/TM7MK51gAAPDfkRbYB6AAAMGTWqojR0/KTHUDwCrAyVOTmp6eVVBLoAAAZtJCraZzAQBpmqrmUVCzowAAlp0BaG+rSEF1AQAzqVwqqVQsyEytgAIAhCRo1eig8rlE9QAAk2l4sDc+EEgytQAKAGCpaePEmPp7u+t6khcA5HM5XXHpOhXyeZmpFVAAADNTf1+3br7hsrquAQJg73/DxJiuvHR9K00iKACAKdK7br5KV122Pv5lPlsAGPz7erv0gfe8Qx3t1VZ7FDAFADCzeBDwY//wdl131SaFoDctAgBgZnHwHxnq0yc/fIc2rlsl8+9bEC8DAtLU1NfTqZ/66Hu0cWKVvvvYczpw6Jjm5hckM2UA8EpgdXe168pL1ulHbrlWo8N9stRkamkUAFACKpWSNt96ra6/epN27z2k/QePamp6hqU9ACoWCurv7dKaVUMa7O9WLpfEycMyQAEAzMwjdXa0xYZ/5aXr4vcAELJ/mFnMMh38KQCgCNQ8yxkAcAgQAABQAAAAAAUAAABQAAAAAAUAAABQAAAAAAUAAABQAAAAAAUAAABQAAAAAAUAAABQAAAAQCIAAEABAAAAFAAAAEABAAAAFAAAAEABAAAAFAAAAEABAAAAFAAAAEABAAAAFAAAAEABAAAAFAAAAEABAAAAFAAAAEABAAAAFAAAAKC8LjAgBLmgIACQLPunmZYjCgAQQlDimV9Y0PTMnObnF2QyrVwAgoJyuUTlUlGlUkFOlppMLY8CAIQgT6KTp87oma2vauu2HTp05IRm5ubE+A8gn8+pu7Nd68dHdc0VGzU2MhAnDGamVkYBAMv9Jj374qu65xvf1a49B7RQSxWyFQEAMJP2HTiirS/t1JZHntVtb79GP3LLNXFVoAVLAAUACNk/H3nyBf3FV76jU6cnlSSJcp7XA8C5IKcTJ8/oK3+7RcdOnNKH33+ryuVSq5UAbgEAIUn0ys69uvve+33wn4qD/1sBwFmhNDVtefgZfWvLEzIzBbUUCgD4Szw7O6ev3/eoN/nTSpKgswaAEmCm+7/7lPbsPRQnEy2EAgAKwK7XDmrb9j1KQtAiAaAExO2Ax5/Z1kqrABQAIEhx+X9qerbuw34AsH3HXs3MzkkhqMlRAIDgSS3V4aMnz+3wDgBWAU5Namp6RkEtgQIAmEkLCws6FwCQ1mqq1VIpqNlRAADzJCGorVqWguoCAGZSqVRUqViQmVoBBQAISYhP86r3zj8AmExDAz2qVsrxuxZAAQDMTBvXrVJfT2f8vFgAkM8luvzidSoW8jJTK6AAAJaaBvu6deN1l2qxACBNU42vHtFVl61XaqYWQQEATC4Ef6b31bps00T8y3y2ADD4d3e168fe83Z1dba32ioiBQAwM3V1tunjP367rrx0fdbqTT8IAJhZHPwH+rr9vxubdelF47LWnDzwMiAgTU2DAz366Z94rx54+Fk9/PjzOnz0hBYWajIBgBQ8SZKoo73qK4bj2nzrdVo7NiSTeVoaBQCUgPa2qt63+UY/E3CJduzar/0Hj8anBLK0B6BQyKu/r0sTq0c0MtynQj4nS5fF4E8BALJneauvu1P9vV0yiz8UAChIIQSZyZMut61CCgBgWRFQzZMBAJmcaTnhECAAAKAAAAAACgAAAKAAAAAACgAAAKAAAAAACgAAAKAAAAAACgAAAKAAAAAACgAAAKAAAACARAAAgAIAAAAoAAAAgAIAAAAoAAAAgAIAAAAoAAAAgAIAAAAoAAAAgAIAAAAoAAAAgAIAAAAoAAAAgAIAAAAoAAAAgAIAAAAoAAAAQHldYECQC0HnDWAmU1MCKABACEGJp5ammp2Z1fxCTecKlMl8Ia9SsaBckig1k3maAEABAII8SaIzk9N64aWden7bTh04dEyzs3My1Q8IQSqXShod6tPll0zo4g1rVKmUZKnJtGQACgAQglzQtu27dc83HtIrO/Zqbn5B2c917gDTyzte08OPb9XFG9foR++8WRNrRpZqWwCgAAAh++eTz72sz3/p2zp+4pSSJFEul+j8AYKcFmo1Pb31lbi69MkP36lLN62VpaYGA7gFAIQkaNeeA/rLr9ynbPDXhQTkkkSHjhzXn//Vt7XvwFElSVCDARQAsPQ/N7egv73vUR0+eqJhgz/gRdMH/yP61gOPq1ZLG3nhBKAAACEk2r33kB/626UkBDUauHHyjG8H7D90LH5uEIACAATPKzv3anJ6Zkn+AwwKwKnTU9q5ez8FoJFAAQBSs7gXu1SHsIA0TeN5ADNTAwAUACB4zCxe91sqgFk8hyKZGgGgAACWLcG2VcpS0JIAQpCq1XL80CAABQBIkqDR4f54LWspAPl8TmPD/Y0c/wEKAGBm2rhuTD1dHfFzIwFpahro69b4muFGnkMBKACApaahgV7dcM3FWgpgBerm6y9Tb3dnIwsoQAEAzJOEoNtvuVYXrV8dT2Q3Cjj9f8Ul6/TOG6+Uk6nhAAoAuArY092uT3zojviWNjOLuVDA1VOZdOWl6/WxD/6I2tsrzP6XEngZENiLHR3u06c++X7dt+VJPfLkizp24pRqaSqZzhkQgpTL5TTU1+3L/pfq1puvUkd7VWlqWmIABQCUgJ7Odn3wfbfo5hsuj08I9Ge1a2p69pxmaEC8blota9XogNaPj6m/t0uumQZ/gAIAlmeDpOHBHo0M9crMZKlH9QNCkCfEWGoy86ipABQAwORJLfskhSx1Ayzb+5epRQAUAMC0IgAAtwAAAAAFAAAAUAAAAAAFAAAAUAAAAAAFAAAAUAAAAAAFAAAAUAAAAAAFAAAAUAAAAEAiAABAAQAAABQAAABAAQAAABQAAABAAQAAABQAAABAAQAAABQAAABAAQAAABQAAABAAQAAABQAAABAAQAAABQAAABAAQAAABQAAACgvC4wIHzfP5YJAGYy/QCgAAAhBCWe1Exz8/OqLaQymVoXgKCgXC5RoZBXLkmUmsk8oAAACvIkiaZnZvXSK3u09aWdOnDwWPzerGUXAgCYFIJULBY02N+tizes1SUXrVFHe5vMUo9WNAoAGPxD0Ku79unebzykbdt3a2ZuXkHLCYAXX96thx57XuOrR/QPNt+oyy6eUAhaqSWAAgCEJOjZF3boz774TR06ekJJCHGZcPkBkKam7Tte0x98/pg+9P5b9fYbLl+JJYBbAECSBO3Ze0h//uVv6/DRE3HgDyFo+QKQJIlOT07ri/f+nbZu26kQEq0gFAAgBGl+vqav3/eYDh4+pmTFzPoBJCHo9Jkpfe3b39OZyakVVPwpAEBs/a/tO6TnXtzBrH+FAisBO3bt17bte2IhWCEoAEDwbN+xV5NT0yu0AACYW1jQi9t3K7VUQSsCBQBIzXzp/7jS1LQyAQiew0dOxO1ABS13FAAgeMxMs/PzWtEAxId+pWmqFdAAKACAZXf/q+WSVi4A5imXivFJgZJphaAAgCuAI8N98S/+ygQgeEaG+pTP52WmlYACAJiZNk6sUldnW/y8sgAwszj7v+Si8ZV2C4ACAArA8GCvrrty0wosAABSMx/812rDxFj8vEJQAAAzxSf/bb71Oq0fH4uHgFYGAGmaaqi/x98JcJPKpcJKnARQAMAMoL+3U5/40GZlJYDVgGUMMLNY9n31Tx//0B0aXz0sS00rFC8DAi8HWbNqSP/bJ9+vb/7d43r8mW06eWoy/nx5AXjxV3u1rMsvntC7b3ubVo8NxMHftKJRAEAJ6O/t0kc/cJtuufEKvfTKa9p34IimZmZkphYGIHhKpaKGB3u0YWKV1owNqlDIx5IPCgCg1CxeDVw1OqDVo4NKs6XC1gcgZK/5Nklm6d8f/EEBAMzkMUmmIC2jq0EAamdT6EEBAEwrFQBwCwAAAFAAAAAABQAAAFAAAAAABQAAAFAAAAAABQAAAFAAAAAABQAAAFAAAABAIgAAQAEAAAAUAAAAQAEAAAAUAAAAQAEAAAAUAAAAQAEAAAAUAAAAQAEAAAAUAAAAQAEAAAAUAAAAQAEAAAAUAAAAQAEAAAAUAAAAoLya2JYv3KVMyVPxVLOv5ezPHjypZ84z45nKMi1TTe6Wj35aTQoAAApANtgHT7dnjWejZ5NnvWfMM+DpzApA0ZNTJPMseGY9k57jnoMK2iXpZS8R2yS94jkQpGm5d3yk0aUAISgTtNIBsOx/ViIKQBzwQ5DMVM4G+Zs87/BcnRWAbk9O527Gc9jzkkmPSHrQf/eTkg540lsuWBlACEGJx2RaWKipVktlWskABHmSoEI+p1xIlJrJPMscBeCBP/mMQilkv1cbzHSnpPd5rvMMXKDpYdmzOsvmbKVgp+fvPPd4Gfiugo7IpPNXBpAkQXNzC3p11z698PIu7TtwVNMzszIzBa1EAMwTFJQv5NTf06UN68Z08Ya16u5qk5l51EDIN3gvv93zTs/Hs8F4xBPUWCXPpiw/5dkq05ck3Z1tF9TOvQjQ7vfsPayvfethPffiDsWB//vaHQCYSVseeVarRgf07nfdoGuvvEi5XLJcVgMoAFvu/oxkQa4rm+n/jOftnqqaQ8lzTZaf83zZ8wdeBJ6qrwggJEEvbt+jP737G9p/8KjiNkCS6PUAwMy0a88B/c8vfF1Hjp3Uu2+7XrlcrpVLAAXgwS98RqYgmSqS3uv5p55bPEU1rzHPz3s+6vkLz+94EXhBkp11EWDZPy71f/5L34qD/1sM/AAQJwizs3P66jcfUkd7Re+88Uo5mS40JBdiud8UgqQbPH/o+WPP7Z6iWsNgVli+6vkXngEvAvLozSEExYN+37j/Me3df3hRgz8ADgzPzi3ob7/zqA4cPh5XElsIBeDBbJB0vZ5/6fmrbDZdVWta6/kNzxc97/7hNxIQQuID/xE9s/UVhRC0WABYQTx05LieePYltRAKQJz1m8m9zfNnnn/nGVkmBemW7P+mX/N06gdC8GzfsVenz0zVVQAAwMy07eXdmp2dZyLRCgUgm/UXFcKnJH1hmc6Wez3/OtvOuExvgNRMBw4dVZqa6gWArYCjx09panpGTYxDgFvu/k3JErluz7/KDtBVl3lZ+jHPvP4ehKy5z8zN61wAwPzCgqeWPShOFxCS+vb7P5sN/lrl+V3PL3uqWhkK+ntgWXOvlIqqFwCYp1jIq5DPN2DwR76+U/4mt8Hz/3julAMHeIaH+uLXugCAmfp6u9RWLTfgIiCSOp/ot8nzP7LBH5CZaePEmDo72uLnegDgDMAlG9eqWCw0YAUAyWKu+WXWe37Pc6sygJlpdLhf11yxcdEFAADSNNXIUJ+uvWJjM23+UwAeuPsumaJRz397/eAPmCk+x/uOW6/T2lXD8S/z2QLABKJcLul9m2/UQH+3UjM1CQpAMDl1eX7T8179AECamoYGevTxD23WmrGhWALeajUAADP/aqWkD773Hbrh6otZQWyg/Fnu++c9v+L5uN4CKAHrx0f1sz/5o/Gxnk89t11nJqdlZlJQBADBUyjktX58TO+57QZdfsmEkqSRbwNE/iwP/X3c84tnu2IASsDwYK8++eE79M6brtS27bvjY4L9tcC0ewBx4O/v7dKGiVXauG5M7W1VmTXNiiEF4IG7PyuZyV3r+beedi0CKAG5XKJ1a0djarVa/BkAhBCUzyXxa2rWbGeGKADBTK4rG/zXaZEAM3lSOSUhKMkHOQCIA788Swf5t1j6/5TnH+gcASZnalYAwC2ALV/8jDJXeX7Jk9PyBgAABUBpkCt6/plnrZY3AAAoAFvuvkuZ2z0f0vIHAAAFQCanqud/93RqWQIAAPnvf9a/Kdoc06RCkAsKimTKyGSmxQAAgAJgisqef+SpNtGA7wkykxYWapqdX9Dc3Lx/TmVmSnJBxXxexaKnkFcuSeRkZjKdDQAAOAR4g+dH1ARCCB5panpOO/Yc1veeellff+Bp3fvtJzxP6qv3ZfnOk7rHf+Zf9Z2HntfTL+7SwaMntVBLlcR/h14HAADks3v/CpJM+qik7iVf4jfp+MkzemXXQe3ce1gnT0/FAd0pfF9BcDKTm9eZqRkdPnZar+w+qHKpoIG+Lm1YO6Q1o/0qFwtv8nYpAADYAlgj6b1LPeufmp7Vi6/s1bZX9+v05LSynyvx/LAzAdnnaGZ2Xrv3HdG+A8c0NNClKzat0eqRPl40kQEAIL/l7s9IJqd3edYt5cx//6HjevSZV3TwyEmZmUII9W8fZI+a3HvwuI74ysCmdaO6+tK1qpRLlAAAAGcAZEEu53lf/NpgQZFe3nFA337oOe0/fELZIK7zIQlBc/MLenbbbt338FadODWZFQsAADgEuMpzo5aASXHJ/8EntmlyajYO2OdbCCFmz/6juv97W+P5AkoAAIACIF3jWb0Ee/7xoN8jT7+iubmF+P0F/n1xe2HLY9vi+YKVXgIAABSAmz0FNU42GJ/QI89s1+zcfPy+Ub83O2ug+fkFrdQOAACgAFQ91zb6wN/M7Jwee/ZVn4nPxDLQ6PLx6u5D2rZjv6SglQgAQAEY82xQQwW95IPvvoPH457/UkjTVM9t270izwMAAJBkg/9AI2ffp85M+8G/fXVcx2vAn2OFAABQAC7xVNVAO/ccik/3a4aZ947X6vmztD4AAAVgkyc0au/fD/z5oHu4KWbdIQSdmZyNTw0MaiCLWVIAAArAuBokKOjYiTNNte9uMr124JjmF2oKaozUTLW0pqUEAKAAjKqB/B5+fDJfswie4yfOxJcJqUGlxMziFcSlBACgAPSpQWppqqM+2JqpaYQQNDM3r5OnphSCGmZhYUFLCQBAAWhXA4Q46NV0Jj6BT02lVkvjjYCGMYu/cykBACgAZTVCUNxn91f1qtmYSVMzszJTQ1j2HIKlBACgAOTVEEG1NI1pRnPztUYezc8KgGmpAAAoAIHrb87MoxUBAMAl7sRTU4MkSYhpRrl8IoWgRv7/QvK0CgBAGrOMCsCsGsKUz+dULOTVbEKQKqWiQkN/Z6KWAgCY8ywspwIw2agV9kI+p2qlJLNmKwBB7W1lKTSucORyiVoKAGAqSLNhGRWAE2qQXC6nnq42KahpmCmuSnR3VCVTgwTl83m1FADASZPmbBkVgIONXGof7OtSPknUPEyd7RV1eEymRgihBQsAAOCIZ245rQDsbuRse6C3Iy63m5magXlGBrtVLhVk1rgDgIVCXi0FAPCaJ11OKwAvq0HMTG3VslaN9MnUHEqFvNaODSgoqJFbIYV8QS0FALBTrjJxx7IpAC94ZtUgSQhav2ZIlTjjNi2l1EyjQz0a6O1s4J/FVCgU4o0IydQSAABznle0jCSelzzHGznoDvZ1anzVoJaSWZz965L1Y/F2gjXw95ZLJSW5XOuM/wCAY54dy60A7PLsVgMlSaLLL1odD98t3SqAaf3aIY0O9yo1a+iVw0q1Er+aWggAsPy/T8tIkrWaZ9RAZqbe7nZdfem48rmczNRQZqb+ng5ddfFa5ZJEjS4/1WpFLQUA8HQ5P3cqLK8CED2sRjPTxvFhXbJhTCE0tnxUKyW97eoN6uyoNnwFolgsqFwuq2UAAMzz8MxCUWlYfgXgUc9hNZB5crlE114+EYtAI5hZvO5309UbtWq4t+GDfywf1Wo8BCgztQQAwKFsnFR1/I5lVwC2e55ZkoN4RR+Qr9moTetGFYJkZhfwCmJJb79uU9z7N1uaRw53dLS31v4/AOApz6taZhIFOU15vq7Gy2blRd3sJeDay9fFGXpqdj4H/piBvk7ddtNl2uCD/xKJy/8d7e1qKQCAr3umtcwkt3z408p8w3N4qUpAoZDTNZeO6/abL9fYYM85rwaYmdJsyf/yTWt05zuu0NhQr8y0JMxM7e1tKpWLrbP8DwA4GKRvhuwBQMtJIpfZ6tmiJWKmaPVIn+645Qq9w5fqh/q74in9NLVsJn92g755KuWiLhof1p23XOl7/hvU3raEVw6z0//d3d0KIZGpRQAA/s7zgpahnNynPnanpFCTFDwfjD9fIqb42mAN9HZpfNWABvq6VCrmZSalliorA6/fW49FoVIpxYcMXbxuVNf5dsLFG8bU1V7V0rN49W9kZDg+BrglAADmPL/ueTYE//Bf/kjLSVBmyxfukuv3fNVzg5pACB4FpWaanZ3X6akZnZmc1uT0nObmF2SpKZdL4jJ/e7WsjrayqtVyLBBOZqZmMTY2EguAmaklAAAe9vyo52hc/l9m8j/gVYd/7LneE7TEzDwyOZXLBU8xzvAjU6Twum0Es6YbZEulonp6utUyAACp5396jmqZCnKvWwUY89zruUrnA+LMf2xsWGZqDQCAJ0Kc/Wt/2Wf/y1GiN9rr+Zwn1TlDuVxSX1+vpKCWAACoeX7fpP3KLPsCcMtHPq3M5z3f1TlDf39fLAEts/cPANji+Qu5bPa/UlYAoiOe/+yZVH2Q3fuPs/9WAQA44/ktzzEtc4ncm6wC3Ov5c9UFuXxew8NDKhQKrTP7BwD8medvlD34Z2UUgDeWgFnPb9b3AAT09/Wqq6tTMlNLAAA8H6TPeOaCmZa7RD/cNs+vL2YrAKa2tjYNDQ+21kt/AICl/39n0sty5XV3rsAC8MatgL/0/J7OCnzJPz70p1gstsbSPwDAPL/j+WJ28E8rQdBbyJ4NMOj5Q8979aaQhKBVq8c0ONgvmWRqAQCAez0/7TkS9/1XiERvIcjkDnk+7XlWbwoDg/3x2p+TqQUAAJ7y/HPPkRASfR8KwDs+8s+Ved7zi55degP09vbEJ/4lSSIzNT8AwA7PL4bssHt5/HZl2AJ441ZA8Ng/zPZKhhXBT/tr7drVrbPvDwDY7/nHnnsUpMr4HXKsALz5oUBTkL4s6Zc8hwR1dnZozZpVrTP4AwAOBOkXVLN7pNcN/qwAvNVKQPQRz//tGV3JM/81a1arVGqRwR8A8Fq27P8lO6uH/bAC8MbrgUFfkPQznpdX6p7/+No1rTP4AwC2eT5VHr/oSwqvG/xZAVjcSkCQZNIN2UrAzVoBkiTR4EC/hkeGlM/nW2PwBwBsidvXQU/I3jj4UwDq3w5Ymz0x8GOegpYjMxWKRY2ODscX/HgRaP7BHwAw7/nTIP2qSXvCeXnQDwUgevDuz2YDodo9P5fdpxzSMtPR3q7RsRF1dLRLMpmpuQEADnj+L8/veyYXMeunANSxGhA8t3h+zXObJ6dWZqZ8IR8f7jM0NNgab/YDANQ83/b82yA9JMnqmPVTAOrcEujNDgj+vGetWlAIIc72h4cH/WtH/L7pB38AwE7Pf/X8ged4CEHl8c2qFwWg/iJwueefej7q6VWLqFQq8aBfT293POgnM5maGADgqOcvPP8tSFvreKkPBeACFIG858bsiUvv9/Sp2ZhJIahSKccDfn7FT8Visfn3+gEAR4J0T/bW2kc9C4sc+CkADSgCBc81nk96fizbGki0hMxMuVxO1WolDvrd3V3ZwK/mXe4HAKTZUv9XshP+T5k0X+chPwpAA4tA4hn3vMfzAc/1nn41hMks3uVXqVSMe/zd3d1qa6vGpf6mHfgBAJYt8z/i+UqQvm6xBMjqG/gRtAQeuPsuBZNT2XOx51bPuzxXe0Y95fM1w3cKISifz6lUKsXB3g/1xa+FQkEhhOZc6gcAzHj2ep7y3Od5wLMtSDMWElXO6e19CFpiD3zxLiWpZFJB0nBWCK7KDhBu8Ix4ejxVT8GT/MAWE4JCkCdRkiRxRl8sFlQul+V7+55KnPXnczkphOaY7QMAUs+8Z8pz3LPPs93znOdpz4ueA0FhYSGY2s/bi3sQ1GQe+KPPKamekEkhG/R7si2CAU+vpyuE0OEpmSwEhdT38c1n83GAzwb8+NW/j3v84fsGfI+WFADAPHOeSc9JzzHPYc+RrARMraSlfQAAAAAAAAAAAAAAAAAAAAAAAAAAAAAAgP8PXpHS8oJ7AwEAAAAASUVORK5CYII=" vertex="1" parent="_V3fdvqvnj95eJ_vE--1-14">
          <mxGeometry x="401.8126888217522" y="138.83383685800604" width="79.89998123134485" height="79.89998123134485" as="geometry" />
        </mxCell>
      </root>
    </mxGraphModel>
  </diagram>
</mxfile>
